<?xml version="1.0" standalone="no"?><!DOCTYPE svg PUBLIC "-//W3C//DTD SVG 1.1//EN" "http://www.w3.org/Graphics/SVG/1.1/DTD/svg11.dtd"><svg t="1752101300251" class="icon" viewBox="0 0 1024 1024" version="1.1" xmlns="http://www.w3.org/2000/svg" p-id="1541" xmlns:xlink="http://www.w3.org/1999/xlink" width="200" height="200"><path d="M170.666667 170.666667m85.333333 0l512 0q85.333333 0 85.333333 85.333333l0 597.333333q0 85.333333-85.333333 85.333334l-512 0q-85.333333 0-85.333333-85.333334l0-597.333333q0-85.333333 85.333333-85.333333Z" fill="#A02D67" p-id="1542"></path><path d="M170.666667 85.333333m85.333333 0l512 0q85.333333 0 85.333333 85.333334l0 597.333333q0 85.333333-85.333333 85.333333l-512 0q-85.333333 0-85.333333-85.333333l0-597.333333q0-85.333333 85.333333-85.333334Z" fill="#D04C83" p-id="1543"></path><path d="M827.733333 170.666667v597.333333a59.733333 59.733333 0 0 1-59.733333 59.733333H256A59.733333 59.733333 0 0 1 196.266667 768V170.666667A59.733333 59.733333 0 0 1 256 110.933333h512A59.733333 59.733333 0 0 1 827.733333 170.666667z" fill="#D86097" p-id="1544"></path><path d="M797.866667 170.666667v264.533333a29.866667 29.866667 0 0 1-29.866667 29.866667H256a29.866667 29.866667 0 0 1-29.866667-29.866667V170.666667a29.866667 29.866667 0 0 1 29.866667-29.866667h512a29.866667 29.866667 0 0 1 29.866667 29.866667z" fill="#D04C83" p-id="1545"></path><path d="M785.066667 170.666667v264.533333a17.066667 17.066667 0 0 1-17.066667 17.066667H256a17.066667 17.066667 0 0 1-17.066667-17.066667V170.666667a17.066667 17.066667 0 0 1 17.066667-17.066667h512a17.066667 17.066667 0 0 1 17.066667 17.066667z" fill="#EDC35B" p-id="1546"></path><path d="M350.165333 777.045333a51.328 51.328 0 0 1-51.285333-51.242666v-8.661334h-8.661333a51.285333 51.285333 0 1 1 0-102.570666h8.661333v-8.661334a51.285333 51.285333 0 0 1 102.570667 0v8.661334h8.661333a51.285333 51.285333 0 1 1 0 102.570666h-8.661333v8.661334a51.328 51.328 0 0 1-51.285334 51.2z" fill="#4F2AB5" p-id="1547"></path><path d="M410.112 640.170667h-34.261333v-34.261334a25.685333 25.685333 0 0 0-51.370667 0v34.261334h-34.218667a25.685333 25.685333 0 0 0-25.685333 25.685333 25.685333 25.685333 0 0 0 25.685333 25.685333h34.218667v34.261334a25.685333 25.685333 0 0 0 51.370667 0v-34.261334h34.261333a25.685333 25.685333 0 0 0 25.685333-25.685333 25.685333 25.685333 0 0 0-25.685333-25.685333z" fill="#EDC35B" p-id="1548"></path><path d="M712.490667 704.469333m-72.576 0a72.576 72.576 0 1 0 145.152 0 72.576 72.576 0 1 0-145.152 0Z" fill="#4F2AB5" p-id="1549"></path><path d="M712.490667 704.469333m-43.562667 0a43.562667 43.562667 0 1 0 87.125333 0 43.562667 43.562667 0 1 0-87.125333 0Z" fill="#6ED6AB" p-id="1550"></path><path d="M451.242667 494.933333m42.666666 0l145.066667 0q42.666667 0 42.666667 42.666667l0 0q0 42.666667-42.666667 42.666667l-145.066667 0q-42.666667 0-42.666666-42.666667l0 0q0-42.666667 42.666666-42.666667Z" fill="#723FDB" p-id="1551"></path><path d="M473.728 516.266667m21.333333 0l42.666667 0q21.333333 0 21.333333 21.333333l0 0q0 21.333333-21.333333 21.333333l-42.666667 0q-21.333333 0-21.333333-21.333333l0 0q0-21.333333 21.333333-21.333333Z" fill="#301196" p-id="1552"></path><path d="M573.866667 516.266667m21.333333 0l42.666667 0q21.333333 0 21.333333 21.333333l0 0q0 21.333333-21.333333 21.333333l-42.666667 0q-21.333333 0-21.333333-21.333333l0 0q0-21.333333 21.333333-21.333333Z" fill="#301196" p-id="1553"></path><path d="M288.64 409.6h128v42.666667h-128zM331.306667 366.933333h42.666666v42.666667h-42.666666z" fill="#E0B453" p-id="1554"></path><path d="M416.682667 324.266667v-85.333334h42.666666v85.333334zM374.016 281.6v-42.666667h42.666667v42.666667z" fill="#DDA854" p-id="1555"></path><path d="M673.109333 452.266667v-128h42.666667v128z" fill="#DD8C54" p-id="1556"></path><path d="M545.109333 366.933333h85.333334v42.666667h-85.333334zM502.442667 324.266667h85.333333v42.666666h-85.333333z" fill="#DDA854" p-id="1557"></path><path d="M502.442667 409.6h128v42.666667h-128zM502.442667 366.933333h42.666666v42.666667h-42.666666z" fill="#E0B453" p-id="1558"></path></svg>