<?xml version="1.0" standalone="no"?><!DOCTYPE svg PUBLIC "-//W3C//DTD SVG 1.1//EN" "http://www.w3.org/Graphics/SVG/1.1/DTD/svg11.dtd"><svg t="1743793360806" class="icon" viewBox="0 0 1024 1024" version="1.1" xmlns="http://www.w3.org/2000/svg" p-id="69379" xmlns:xlink="http://www.w3.org/1999/xlink" width="200" height="200"><path d="M866.461538 787.692308h78.769231v78.76923h-78.769231zM866.461538 708.923077h78.769231v78.769231h-78.769231zM866.461538 630.153846h78.769231v78.769231h-78.769231zM866.461538 551.384615h78.769231v78.769231h-78.769231zM866.461538 472.615385h78.769231v78.76923h-78.769231zM866.461538 393.846154h78.769231v78.769231h-78.769231zM866.461538 315.076923h78.769231v78.769231h-78.769231zM866.461538 236.307692h78.769231v78.769231h-78.769231zM866.461538 157.538462h78.769231v78.76923h-78.769231zM866.461538 78.769231h78.769231v78.769231h-78.769231zM787.692308 866.461538h78.76923v78.769231h-78.76923z" fill="#1E2028" p-id="69380"></path><path d="M787.692308 787.692308h78.76923v78.76923h-78.76923zM787.692308 708.923077h78.76923v78.769231h-78.76923zM787.692308 630.153846h78.76923v78.769231h-78.76923zM787.692308 551.384615h78.76923v78.769231h-78.76923zM787.692308 472.615385h78.76923v78.76923h-78.76923zM787.692308 393.846154h78.76923v78.769231h-78.76923zM787.692308 315.076923h78.76923v78.769231h-78.76923zM787.692308 236.307692h78.76923v78.769231h-78.76923zM787.692308 157.538462h78.76923v78.76923h-78.76923z" fill="#AF1441" p-id="69381"></path><path d="M787.692308 78.769231h78.76923v78.769231h-78.76923z" fill="#FF1A51" p-id="69382"></path><path d="M787.692308 0h78.76923v78.769231h-78.76923zM708.923077 945.230769h78.769231v78.769231h-78.769231z" fill="#1E2028" p-id="69383"></path><path d="M708.923077 866.461538h78.769231v78.769231h-78.769231z" fill="#AF1441" p-id="69384"></path><path d="M708.923077 787.692308h78.769231v78.76923h-78.769231zM708.923077 708.923077h78.769231v78.769231h-78.769231z" fill="#FF1A51" p-id="69385"></path><path d="M708.923077 630.153846h78.769231v78.769231h-78.769231z" fill="#1E2028" p-id="69386"></path><path d="M708.923077 551.384615h78.769231v78.769231h-78.769231z" fill="#FF1A51" p-id="69387"></path><path d="M708.923077 472.615385h78.769231v78.76923h-78.769231zM708.923077 393.846154h78.769231v78.769231h-78.769231zM708.923077 315.076923h78.769231v78.769231h-78.769231zM708.923077 236.307692h78.769231v78.769231h-78.769231zM708.923077 157.538462h78.769231v78.76923h-78.769231z" fill="#1E2028" p-id="69388"></path><path d="M708.923077 78.769231h78.769231v78.769231h-78.769231z" fill="#FF1A51" p-id="69389"></path><path d="M708.923077 0h78.769231v78.769231h-78.769231zM630.153846 945.230769h78.769231v78.769231h-78.769231z" fill="#1E2028" p-id="69390"></path><path d="M630.153846 866.461538h78.769231v78.769231h-78.769231z" fill="#AF1441" p-id="69391"></path><path d="M630.153846 787.692308h78.769231v78.76923h-78.769231z" fill="#FF1A51" p-id="69392"></path><path d="M630.153846 708.923077h78.769231v78.769231h-78.769231z" fill="#1E2028" p-id="69393"></path><path d="M630.153846 630.153846h78.769231v78.769231h-78.769231zM630.153846 551.384615h78.769231v78.769231h-78.769231z" fill="#FF1A51" p-id="69394"></path><path d="M630.153846 472.615385h78.769231v78.76923h-78.769231z" fill="#1E2028" p-id="69395"></path><path d="M630.153846 393.846154h78.769231v78.769231h-78.769231zM630.153846 315.076923h78.769231v78.769231h-78.769231zM630.153846 236.307692h78.769231v78.769231h-78.769231z" fill="#FFDD4D" p-id="69396"></path><path d="M630.153846 157.538462h78.769231v78.76923h-78.769231z" fill="#1E2028" p-id="69397"></path><path d="M630.153846 78.769231h78.769231v78.769231h-78.769231z" fill="#FF1A51" p-id="69398"></path><path d="M630.153846 0h78.769231v78.769231h-78.769231zM551.384615 945.230769h78.769231v78.769231h-78.769231z" fill="#1E2028" p-id="69399"></path><path d="M551.384615 866.461538h78.769231v78.769231h-78.769231z" fill="#AF1441" p-id="69400"></path><path d="M551.384615 787.692308h78.769231v78.76923h-78.769231zM551.384615 708.923077h78.769231v78.769231h-78.769231zM551.384615 630.153846h78.769231v78.769231h-78.769231zM551.384615 551.384615h78.769231v78.769231h-78.769231z" fill="#FF1A51" p-id="69401"></path><path d="M551.384615 472.615385h78.769231v78.76923h-78.769231z" fill="#1E2028" p-id="69402"></path><path d="M551.384615 393.846154h78.769231v78.769231h-78.769231zM551.384615 315.076923h78.769231v78.769231h-78.769231zM551.384615 236.307692h78.769231v78.769231h-78.769231z" fill="#FFDD4D" p-id="69403"></path><path d="M551.384615 157.538462h78.769231v78.76923h-78.769231z" fill="#1E2028" p-id="69404"></path><path d="M551.384615 78.769231h78.769231v78.769231h-78.769231z" fill="#FF1A51" p-id="69405"></path><path d="M551.384615 0h78.769231v78.769231h-78.769231zM472.615385 945.230769h78.76923v78.769231h-78.76923z" fill="#1E2028" p-id="69406"></path><path d="M472.615385 866.461538h78.76923v78.769231h-78.76923z" fill="#AF1441" p-id="69407"></path><path d="M472.615385 787.692308h78.76923v78.76923h-78.76923zM472.615385 708.923077h78.76923v78.769231h-78.76923zM472.615385 630.153846h78.76923v78.769231h-78.76923zM472.615385 551.384615h78.76923v78.769231h-78.76923z" fill="#FF1A51" p-id="69408"></path><path d="M472.615385 472.615385h78.76923v78.76923h-78.76923z" fill="#1E2028" p-id="69409"></path><path d="M472.615385 393.846154h78.76923v78.769231h-78.76923zM472.615385 315.076923h78.76923v78.769231h-78.76923zM472.615385 236.307692h78.76923v78.769231h-78.76923z" fill="#FFDD4D" p-id="69410"></path><path d="M472.615385 157.538462h78.76923v78.76923h-78.76923z" fill="#1E2028" p-id="69411"></path><path d="M472.615385 78.769231h78.76923v78.769231h-78.76923z" fill="#FF1A51" p-id="69412"></path><path d="M472.615385 0h78.76923v78.769231h-78.76923zM393.846154 945.230769h78.769231v78.769231h-78.769231z" fill="#1E2028" p-id="69413"></path><path d="M393.846154 866.461538h78.769231v78.769231h-78.769231z" fill="#AF1441" p-id="69414"></path><path d="M393.846154 787.692308h78.769231v78.76923h-78.769231z" fill="#FF1A51" p-id="69415"></path><path d="M393.846154 708.923077h78.769231v78.769231h-78.769231z" fill="#1E2028" p-id="69416"></path><path d="M393.846154 630.153846h78.769231v78.769231h-78.769231zM393.846154 551.384615h78.769231v78.769231h-78.769231z" fill="#FF1A51" p-id="69417"></path><path d="M393.846154 472.615385h78.769231v78.76923h-78.769231z" fill="#1E2028" p-id="69418"></path><path d="M393.846154 393.846154h78.769231v78.769231h-78.769231zM393.846154 315.076923h78.769231v78.769231h-78.769231zM393.846154 236.307692h78.769231v78.769231h-78.769231z" fill="#FFDD4D" p-id="69419"></path><path d="M393.846154 157.538462h78.769231v78.76923h-78.769231z" fill="#1E2028" p-id="69420"></path><path d="M393.846154 78.769231h78.769231v78.769231h-78.769231z" fill="#FF1A51" p-id="69421"></path><path d="M393.846154 0h78.769231v78.769231h-78.769231zM315.076923 945.230769h78.769231v78.769231h-78.769231z" fill="#1E2028" p-id="69422"></path><path d="M315.076923 866.461538h78.769231v78.769231h-78.769231z" fill="#AF1441" p-id="69423"></path><path d="M315.076923 787.692308h78.769231v78.76923h-78.769231zM315.076923 708.923077h78.769231v78.769231h-78.769231zM315.076923 630.153846h78.769231v78.769231h-78.769231z" fill="#1E2028" p-id="69424"></path><path d="M315.076923 551.384615h78.769231v78.769231h-78.769231z" fill="#FF1A51" p-id="69425"></path><path d="M315.076923 472.615385h78.769231v78.76923h-78.769231z" fill="#1E2028" p-id="69426"></path><path d="M315.076923 393.846154h78.769231v78.769231h-78.769231zM315.076923 315.076923h78.769231v78.769231h-78.769231zM315.076923 236.307692h78.769231v78.769231h-78.769231z" fill="#FF9343" p-id="69427"></path><path d="M315.076923 157.538462h78.769231v78.76923h-78.769231z" fill="#1E2028" p-id="69428"></path><path d="M315.076923 78.769231h78.769231v78.769231h-78.769231z" fill="#FF1A51" p-id="69429"></path><path d="M315.076923 0h78.769231v78.769231h-78.769231zM236.307692 945.230769h78.769231v78.769231h-78.769231z" fill="#1E2028" p-id="69430"></path><path d="M236.307692 866.461538h78.769231v78.769231h-78.769231z" fill="#F4608A" p-id="69431"></path><path d="M236.307692 787.692308h78.769231v78.76923h-78.769231z" fill="#FF1A51" p-id="69432"></path><path d="M236.307692 708.923077h78.769231v78.769231h-78.769231z" fill="#1E2028" p-id="69433"></path><path d="M236.307692 630.153846h78.769231v78.769231h-78.769231zM236.307692 551.384615h78.769231v78.769231h-78.769231z" fill="#FF1A51" p-id="69434"></path><path d="M236.307692 472.615385h78.769231v78.76923h-78.769231zM236.307692 393.846154h78.769231v78.769231h-78.769231zM236.307692 315.076923h78.769231v78.769231h-78.769231zM236.307692 236.307692h78.769231v78.769231h-78.769231zM236.307692 157.538462h78.769231v78.76923h-78.769231z" fill="#1E2028" p-id="69435"></path><path d="M236.307692 78.769231h78.769231v78.769231h-78.769231z" fill="#FF1A51" p-id="69436"></path><path d="M236.307692 0h78.769231v78.769231h-78.769231zM157.538462 945.230769h78.76923v78.769231H157.538462z" fill="#1E2028" p-id="69437"></path><path d="M157.538462 866.461538h78.76923v78.769231H157.538462zM157.538462 787.692308h78.76923v78.76923H157.538462zM157.538462 708.923077h78.76923v78.769231H157.538462zM157.538462 630.153846h78.76923v78.769231H157.538462zM157.538462 551.384615h78.76923v78.769231H157.538462zM157.538462 472.615385h78.76923v78.76923H157.538462zM157.538462 393.846154h78.76923v78.769231H157.538462zM157.538462 315.076923h78.76923v78.769231H157.538462zM157.538462 236.307692h78.76923v78.769231H157.538462zM157.538462 157.538462h78.76923v78.76923H157.538462zM157.538462 78.769231h78.76923v78.769231H157.538462z" fill="#F4608A" p-id="69438"></path><path d="M157.538462 0h78.76923v78.769231H157.538462zM78.769231 866.461538h78.769231v78.769231H78.769231zM78.769231 787.692308h78.769231v78.76923H78.769231zM78.769231 708.923077h78.769231v78.769231H78.769231zM78.769231 630.153846h78.769231v78.769231H78.769231zM78.769231 551.384615h78.769231v78.769231H78.769231zM78.769231 472.615385h78.769231v78.76923H78.769231zM78.769231 393.846154h78.769231v78.769231H78.769231zM78.769231 315.076923h78.769231v78.769231H78.769231zM78.769231 236.307692h78.769231v78.769231H78.769231zM78.769231 157.538462h78.769231v78.76923H78.769231zM78.769231 78.769231h78.769231v78.769231H78.769231z" fill="#1E2028" p-id="69439"></path></svg>